<svg xmlns="http://www.w3.org/2000/svg" width="1200" height="230" viewBox="0 0 1200 230"><rect width="1200" height="230" rx="24" fill="#0B0E15"/><g font-family="Inter,Segoe UI,Arial" font-size="16" font-weight="700" text-anchor="middle"><g fill="#131A25" stroke="#334155"><rect x="35" y="70" width="150" height="88" rx="18"/><rect x="225" y="70" width="150" height="88" rx="18"/><rect x="415" y="70" width="150" height="88" rx="18"/><rect x="605" y="70" width="150" height="88" rx="18"/><rect x="795" y="70" width="150" height="88" rx="18"/><rect x="985" y="70" width="180" height="88" rx="18"/></g><g fill="#E8EEF8"><text x="110" y="105">Validate</text><text x="110" y="130">& sanitize</text><text x="300" y="105">Reachability</text><text x="300" y="130">+ SSL</text><text x="490" y="105">Extract</text><text x="490" y="130">50+ signals</text><text x="680" y="105">ML + threat</text><text x="680" y="130">intelligence</text><text x="870" y="105">Classify</text><text x="870" y="130">& score</text><text x="1075" y="105">Verdict</text><text x="1075" y="130">+ logging</text></g></g><g stroke="#FF4057" stroke-width="4" fill="none" stroke-linecap="round"><path d="M185 114h35"/><path d="M375 114h35"/><path d="M565 114h35"/><path d="M755 114h35"/><path d="M945 114h35"/></g><g fill="#FF4057"><path d="M220 114l-10-7v14z"/><path d="M410 114l-10-7v14z"/><path d="M600 114l-10-7v14z"/><path d="M790 114l-10-7v14z"/><path d="M980 114l-10-7v14z"/></g><text x="40" y="38" fill="#63E6FF" font-family="Inter,Segoe UI,Arial" font-size="14" font-weight="700" letter-spacing="3">ANALYSIS PIPELINE</text></svg>